<svg width="190" height="300" viewBox="0 0 190 300" fill="none" xmlns="http://www.w3.org/2000/svg">
<path d="M139.425 174.431C139.418 172.977 138.233 171.804 136.779 171.811C135.325 171.818 134.152 173.002 134.159 174.456L134.729 291.132C134.737 292.586 135.921 293.759 137.375 293.752C138.829 293.745 140.002 292.56 139.995 291.106L139.425 174.431Z" fill="#1A5FFE"/>
<path d="M138.178 174.575C138.171 173.121 136.987 171.948 135.533 171.955C134.079 171.962 132.906 173.147 132.913 174.601L133.483 291.276C133.49 292.73 134.675 293.903 136.129 293.896C137.583 293.889 138.756 292.705 138.749 291.251L138.178 174.575Z" stroke="#000022" stroke-miterlimit="10" stroke-linecap="round"/>
<path d="M150.899 173.559C150.613 172.133 149.226 171.209 147.8 171.494C146.374 171.78 145.45 173.167 145.736 174.593L168.658 288.996C168.944 290.422 170.331 291.346 171.757 291.06C173.182 290.775 174.107 289.387 173.821 287.962L150.899 173.559Z" fill="#1A5FFE"/>
<path d="M149.7 173.939C149.414 172.513 148.027 171.589 146.601 171.874C145.175 172.16 144.251 173.547 144.537 174.973L167.459 289.376C167.745 290.802 169.132 291.726 170.558 291.441C171.983 291.155 172.908 289.768 172.622 288.342L149.7 173.939Z" stroke="#000022" stroke-miterlimit="10" stroke-linecap="round"/>
<path d="M41.7302 272.898L73.4039 273.954C77.6367 274.095 81.6402 275.912 84.5334 279.005C87.4267 282.098 88.9728 286.213 88.8317 290.446L41.1897 288.858L41.7219 272.897L41.7302 272.898Z" fill="#000022"/>
<path d="M52.5344 239.397L52.5316 239.397C47.1759 239.219 42.6894 243.415 42.5108 248.771L41.6592 274.309C41.4806 279.665 45.6775 284.152 51.0332 284.33L51.0359 284.33C56.3916 284.509 60.8781 280.312 61.0567 274.956L61.9083 249.418C62.0869 244.062 57.8901 239.576 52.5344 239.397Z" fill="#C0512B" stroke="#000022" stroke-miterlimit="10"/>
<path d="M52.9564 140.234C39.0993 141.952 31.6663 149.593 30.5079 163.514L27.6616 259.128L78.1015 252.15L70.6935 134.414L62.3792 141.065L52.9564 140.234Z" fill="#FCDBAA"/>
<path d="M34.554 143.152L29.3354 258.033L79.5121 251.681" stroke="#000022" stroke-miterlimit="10" stroke-linecap="round"/>
<path d="M30.968 248.602L75.8568 243.082" stroke="#000022" stroke-miterlimit="10" stroke-linecap="round"/>
<path d="M73.8003 147.102L78.6115 245.055" stroke="#000022" stroke-miterlimit="10" stroke-linecap="round"/>
<path d="M111.869 89.4532L123.151 87.2915L122.539 91.2131L105.533 94.8326L105.519 94.8187L101.778 97.5901L88.5415 107.39L82.6467 99.4276L99.1866 87.1834L101.531 78.7112L104.691 79.1713L103.629 82.8295L113.471 71.8325L115.416 73.8446L108.593 82.9376L118.625 75.1776L120.917 78.5394L110.799 85.9612L122.231 80.1745L124.562 82.9875L111.869 89.4532Z" fill="#C0512B"/>
<path d="M104.682 100.799L75.075 120.199C73.2961 121.369 71.293 122.155 69.1934 122.507C67.0938 122.859 64.9439 122.77 62.8808 122.245H62.8642C60.9184 121.752 59.088 120.883 57.4765 119.687L57.4571 119.673C56.5149 118.931 55.6504 118.095 54.8769 117.178L54.0455 116.125L33.8335 90.6837L52.1249 78.1541L67.6061 104.81L95.3757 86.6014L104.682 100.799Z" fill="#FBD206"/>
<path d="M51.8672 82.6189L66.3839 106.863L95.2344 89.2371" stroke="#000022" stroke-miterlimit="10" stroke-linecap="round"/>
<path d="M41.9456 97.6733C41.9456 97.6733 54.5611 128.04 70.8182 121.624C87.0754 115.208 105.153 99.7713 105.153 99.7713" stroke="#000022" stroke-miterlimit="10" stroke-linecap="round"/>
<path d="M101.581 78.6475L104.463 79.5621L103.596 82.6384L113.714 72.2483L114.981 74.1495L108.684 82.8767L118.85 75.3939L120.951 78.4895L110.682 85.989L122.461 80.6069L123.766 83.0735L111.894 89.3812L122.83 87.8902L122.541 91.166L105.428 94.3449L101.98 97.0498L96.72 88.9239L99.7741 87.1835L101.581 78.6475Z" stroke="#000022" stroke-linecap="round" stroke-linejoin="round"/>
<path d="M70.0673 54.9407C70.0656 55.8562 69.7154 56.7367 69.0879 57.4033C68.4604 58.0699 67.6026 58.4726 66.6889 58.5297L63.2773 58.7375L63.3189 59.4138C63.523 62.7768 62.4976 66.0995 60.4336 68.7626C58.3696 71.4257 55.4078 73.2476 52.1002 73.8889L50.8142 77.4169L40.5405 75.6377C40.5405 75.6377 41.214 73.7559 41.8376 72.0542C39.9558 70.8842 38.3821 69.28 37.2484 67.3762C36.1147 65.4724 35.4541 63.3245 35.322 61.1126L34.837 53.1171C34.6165 49.4419 35.8649 45.8297 38.3077 43.0751C40.7505 40.3205 44.1875 38.649 47.8626 38.4285L48.1398 38.4119C51.8149 38.1914 55.4271 39.4399 58.1818 41.8827C60.9364 44.3254 62.6078 47.7625 62.8283 51.4376V51.5762L66.24 51.3711C67.1913 51.3149 68.1262 51.6381 68.8399 52.2697C69.5536 52.9013 69.988 53.79 70.0479 54.7411C70.0673 54.7966 70.0673 54.8742 70.0673 54.9407Z" fill="#C0512B"/>
<path d="M52.5323 46.3941L52.5295 46.3943C49.9032 46.5535 47.9033 48.8117 48.0625 51.438L48.1528 52.9262C48.312 55.5526 50.5702 57.5525 53.1965 57.3932L53.1992 57.3931C55.8255 57.2338 57.8255 54.9757 57.6662 52.3494L57.576 50.8611C57.4167 48.2348 55.1586 46.2348 52.5323 46.3941Z" fill="#F8FAFC"/>
<path d="M57.7979 53.4647C58.0152 51.8908 57.3137 50.4938 56.2311 50.3444C55.1485 50.1949 54.0948 51.3496 53.8775 52.9235C53.6603 54.4973 54.3617 55.8943 55.4443 56.0438C56.5269 56.1933 57.5807 55.0385 57.7979 53.4647Z" fill="#010024"/>
<path d="M42.8906 36.9901L42.8685 37.0039C42.8671 36.9929 42.8671 36.9817 42.8685 36.9707L42.8906 36.9901Z" fill="#010024"/>
<path d="M42.8906 36.9901L42.8685 37.0039C42.8671 36.9929 42.8671 36.9817 42.8685 36.9707L42.8906 36.9901Z" fill="#010024"/>
<path d="M58.9428 43.6887C57.7892 43.7614 56.638 43.513 55.6171 42.9709C55.2796 43.4498 54.8245 43.8339 54.2956 44.0861C53.7668 44.3383 53.1819 44.4501 52.5973 44.4109C52.0127 44.3716 51.448 44.1826 50.9576 43.862C50.4672 43.5413 50.0675 43.0999 49.7971 42.5801C49.5335 43.2661 49.1121 43.8804 48.5671 44.3735C48.0221 44.8665 47.3687 45.2243 46.6598 45.418C46.5196 46.7609 46.0847 48.0563 45.3862 49.2118C44.6878 50.3673 43.7429 51.3544 42.6191 52.1027C43.0323 52.5204 43.3239 53.0428 43.4626 53.6138C43.6014 54.1847 43.5819 54.7827 43.4064 55.3434C43.2309 55.9041 42.9059 56.4065 42.4664 56.7965C42.027 57.1864 41.4895 57.4493 40.9119 57.5569C41.0296 57.9728 41.1021 58.4002 41.1281 58.8317C41.1798 59.7224 41.0361 60.6136 40.7068 61.4428C40.3776 62.2719 39.8709 63.019 39.2222 63.6315C38.5736 64.2441 37.7987 64.7072 36.9521 64.9885C36.1054 65.2698 35.2074 65.3623 34.3212 65.2597C33.435 65.157 32.582 64.8617 31.822 64.3943C31.062 63.927 30.4136 63.299 29.9221 62.5544C29.4307 61.8098 29.1081 60.9667 28.9771 60.0842C28.8461 59.2017 28.9099 58.3013 29.1638 57.446C28.5138 56.8335 27.9937 56.0964 27.6347 55.2785C27.2757 54.4607 27.0851 53.579 27.0742 52.6859C27.0634 51.7928 27.2325 50.9066 27.5715 50.0803C27.9105 49.254 28.4125 48.5044 29.0474 47.8763C28.6759 46.9601 28.4568 45.9893 28.3989 45.0023C28.2549 42.5775 29.0785 40.1944 30.6891 38.376C32.2997 36.5576 34.5658 35.4522 36.9903 35.3023C37.2342 35.3023 37.4753 35.2829 37.7164 35.3023C37.7164 35.2331 37.7164 35.1638 37.697 35.0945C37.6433 34.1711 37.8756 33.2537 38.3624 32.4672C38.8492 31.6808 39.5667 31.0636 40.4171 30.6999C41.2675 30.3362 42.2094 30.2437 43.1144 30.435C44.0193 30.6263 44.8432 31.0921 45.4737 31.7688C46.2349 31.2779 47.1011 30.9734 48.002 30.88C48.903 30.7866 49.8133 30.9069 50.659 31.2311C50.7442 30.3881 51.1398 29.6069 51.769 29.0394C52.3981 28.4718 53.2157 28.1584 54.063 28.1602C54.9103 28.1619 55.7267 28.4786 56.3535 29.0487C56.9803 29.6188 57.3727 30.4016 57.4545 31.245C57.6919 31.2022 57.9316 31.1735 58.1723 31.1591C59.8213 31.0874 61.4325 31.6663 62.6588 32.7711C63.8851 33.876 64.6282 35.4184 64.7282 37.0659C64.8281 38.7135 64.2769 40.3343 63.1932 41.5793C62.1095 42.8243 60.5801 43.5938 58.9345 43.7219L58.9428 43.6887Z" fill="#010024"/>
<path d="M41.9761 58.236C44.6578 58.236 46.8317 56.0621 46.8317 53.3804C46.8317 50.6988 44.6578 48.5249 41.9761 48.5249C39.2945 48.5249 37.1206 50.6988 37.1206 53.3804C37.1206 56.0621 39.2945 58.236 41.9761 58.236Z" fill="#C0512B"/>
<path d="M59.3085 61.5894C59.3494 62.2612 59.2576 62.9346 59.0382 63.571C58.8188 64.2073 58.4762 64.7942 58.0299 65.2982C57.5836 65.8021 57.0424 66.2131 56.4372 66.5079C55.8321 66.8026 55.1748 66.9752 54.5029 67.0158C53.831 67.0567 53.1576 66.9648 52.5213 66.7455C51.8849 66.5261 51.298 66.1834 50.7941 65.7372C50.2901 65.2909 49.8791 64.7497 49.5844 64.1445C49.2896 63.5394 49.117 62.8821 49.0764 62.2102" stroke="#010024" stroke-miterlimit="10" stroke-linecap="round"/>
<path d="M49.5115 79.9388L52.2829 73.62C52.2829 73.62 63.1192 72.5946 63.3686 58.6543L67.1266 58.3467C68.063 58.2708 68.9332 57.8342 69.5537 57.1289C70.1742 56.4236 70.4964 55.5048 70.4523 54.5665V54.5665C70.4294 54.0813 70.309 53.6058 70.0984 53.1682C69.8877 52.7306 69.591 52.3399 69.2261 52.0194C68.8611 51.699 68.4354 51.4553 67.9742 51.3029C67.513 51.1506 67.0259 51.0927 66.5419 51.1327L62.939 51.4264C62.939 51.4264 62.551 44.0655 57.1883 41.793" stroke="#000022" stroke-miterlimit="10" stroke-linecap="round"/>
<path d="M40.6678 74.9199L41.9621 72.1208C41.9621 72.1208 37.5666 69.6819 35.6931 62.7949" stroke="#010024" stroke-miterlimit="10" stroke-linecap="round"/>
<path d="M29.8142 277.885L61.4878 278.942C65.7207 279.083 69.7241 280.9 72.6174 283.992C75.5107 287.085 77.0568 291.201 76.9157 295.434L29.2737 293.845L29.8059 277.885L29.8142 277.885Z" fill="#000022"/>
<path d="M40.6183 244.385L40.6156 244.385C35.2599 244.206 30.7734 248.403 30.5948 253.759L29.7432 279.297C29.5646 284.653 33.7614 289.139 39.1171 289.318L39.1199 289.318C44.4756 289.496 48.9621 285.3 49.1407 279.944L49.9923 254.406C50.1709 249.05 45.9741 244.563 40.6183 244.385Z" fill="#C0512B" stroke="#000022" stroke-miterlimit="10"/>
<path d="M52.5961 104.014C45.8717 104.849 39.6393 107.972 34.9458 112.859C30.2523 117.747 27.3837 124.1 26.8218 130.853L15.7417 264.117L66.1816 257.136L62.3986 137.41L52.5961 104.014Z" fill="#FCDBAA"/>
<path d="M22.6343 148.138L17.4185 263.019L67.5951 256.67" stroke="#000022" stroke-miterlimit="10" stroke-linecap="round"/>
<path d="M19.0508 253.591L63.9395 248.07" stroke="#000022" stroke-miterlimit="10" stroke-linecap="round"/>
<path d="M76.0314 150.918L16.928 145.212L34.6679 74.8174L52.1694 77.5999L76.0314 150.918Z" fill="#FBD206"/>
<path d="M76.0978 151.134L16.4485 145.605L34.8313 74.5015L53.2197 78.0156L69.8815 132.197" stroke="#000022" stroke-miterlimit="10" stroke-linecap="round"/>
<path d="M80.2549 142.642L91.7702 147.952L89.8523 151.536L78.592 145.996L89.007 153.456L87.5909 156.824L75.9897 148.562L83.1205 157.564L79.3625 158.833L68.2879 145.428L68.2962 145.408L64.1086 143.371L49.2981 136.168L53.6326 127.261L72.1374 136.263L80.7344 134.428L81.7847 137.44L78.0516 138.191L92.3522 141.833L91.4681 144.491L80.2549 142.642Z" fill="#C0512B"/>
<path d="M54.4834 92.1387L39.6147 116.167L68.5235 133.702" stroke="#000022" stroke-miterlimit="10" stroke-linecap="round"/>
<path d="M43.6749 80.2217C43.6749 80.2217 12.9121 112.924 27.6561 125.784C40.8259 137.271 62.8365 146.248 62.8365 146.248" stroke="#000022" stroke-miterlimit="10" stroke-linecap="round"/>
<path d="M80.5654 134.475L81.0782 137.454L77.9492 138.097L91.823 142.315L90.7172 144.314L80.0721 142.728L91.3879 148.321L89.6031 151.608L78.2236 145.932L88.4169 153.925L86.8233 156.217L75.7681 148.568L82.1147 157.594L79.0717 158.844L68.3906 145.104L64.4053 143.283L69.2054 134.877L72.1542 136.792L80.5654 134.475Z" stroke="#000022" stroke-linecap="round" stroke-linejoin="round"/>
<path d="M61.8804 152.087L66.6943 250.043" stroke="#000022" stroke-miterlimit="10" stroke-linecap="round"/>
<path d="M49.8524 28.2243L51.3323 29.7042L29.1859 51.8479L26.5197 49.1818C25.5 50.2536 24.2658 51.0985 22.8977 51.6615C21.5296 52.2244 20.0582 52.4929 18.5794 52.4492C17.1007 52.4056 15.6477 52.0509 14.3151 51.4082C12.9826 50.7655 11.8004 49.8493 10.8456 48.7193C9.8908 47.5892 9.1848 46.2707 8.77361 44.8495C8.36241 43.4284 8.25525 41.9366 8.4591 40.4713C8.66295 39.006 9.17324 37.6 9.95671 36.3451C10.7402 35.0902 11.7793 34.0144 13.0063 33.1879C10.9189 30.3681 10.0039 26.8499 10.4528 23.3705C10.9017 19.891 12.6798 16.7203 15.4145 14.5227C18.1491 12.325 21.6282 11.271 25.1228 11.5814C28.6173 11.8919 31.8561 13.5427 34.1606 16.188C34.8682 14.954 35.8316 13.8856 36.986 13.0545C38.1404 12.2234 39.4592 11.6487 40.8539 11.369C42.2487 11.0894 43.6871 11.1112 45.0727 11.433C46.4583 11.7548 47.759 12.3692 48.8877 13.235C50.0164 14.1007 50.9469 15.1978 51.6168 16.4527C52.2868 17.7075 52.6806 19.0911 52.772 20.5107C52.8633 21.9302 52.6501 23.3529 52.1465 24.6833C51.643 26.0137 50.8608 27.221 49.8524 28.2243Z" fill="#FCDBAA"/>
<path d="M52.2192 19.7631C52.3053 21.6721 51.8414 23.5656 50.8827 25.2186C49.9239 26.8715 48.5106 28.2144 46.8108 29.0875C45.111 29.9606 43.1963 30.3272 41.2942 30.1437C39.3921 29.9602 37.5828 29.2344 36.0812 28.0524C35.3897 30.0201 34.2553 31.8026 32.7657 33.2624C31.2761 34.7223 29.4711 35.8204 27.4898 36.472C27.8823 37.5088 28.1068 38.6015 28.155 39.709C28.2392 41.5618 27.8327 43.404 26.9765 45.0493C26.1203 46.6945 24.8448 48.0845 23.279 49.0786C21.7132 50.0726 19.9126 50.6356 18.0594 50.7104C16.2062 50.7852 14.3661 50.3694 12.7252 49.5048C11.0844 48.6402 9.70091 47.3576 8.71483 45.7868C7.72874 44.2159 7.17499 42.4125 7.10958 40.559C7.04417 38.7054 7.46943 36.8675 8.34235 35.231C9.21526 33.5946 10.5049 32.2177 12.0807 31.2396C10.1557 28.3516 9.40944 24.8362 9.99528 21.4152C10.5811 17.9943 12.4546 14.9275 15.2309 12.8446C18.0072 10.7618 21.4756 9.821 24.9238 10.2155C28.3721 10.61 31.5385 12.3097 33.7726 14.9658C34.8955 13.1547 36.5686 11.7507 38.5471 10.9593C40.5256 10.168 42.7055 10.0309 44.7676 10.5681C46.8297 11.1053 48.6656 12.2886 50.0065 13.9447C51.3474 15.6008 52.1228 17.6427 52.2192 19.7714V19.7631Z" stroke="#010024" stroke-miterlimit="10" stroke-linecap="round"/>
<path d="M97.5763 139.125H178.225V140.927C178.225 146.222 177.182 151.466 175.155 156.358C173.129 161.251 170.158 165.696 166.414 169.44C162.67 173.185 158.224 176.155 153.332 178.182C148.44 180.208 143.196 181.251 137.901 181.251C132.604 181.251 127.36 180.208 122.467 178.181C117.574 176.154 113.129 173.183 109.384 169.437C105.639 165.692 102.669 161.246 100.643 156.353C98.6174 151.459 97.5752 146.215 97.5763 140.919V139.125Z" fill="#1A5FFE"/>
<path d="M123.658 174.688C115.959 171.812 109.323 166.653 104.638 159.901C99.952 153.149 97.441 145.127 97.4406 136.908V135.107H178.089V136.908C178.087 147.602 173.837 157.857 166.274 165.417C158.712 172.978 148.456 177.225 137.762 177.224V177.224C134.749 177.227 131.746 176.892 128.808 176.227" stroke="#000022" stroke-miterlimit="10" stroke-linecap="round"/>
<path d="M99.6227 287.97C99.337 289.396 100.261 290.783 101.687 291.069C103.113 291.354 104.5 290.43 104.786 289.004L127.708 174.601C127.994 173.176 127.07 171.788 125.644 171.502C124.218 171.217 122.831 172.141 122.545 173.567L99.6227 287.97Z" fill="#1A5FFE"/>
<path d="M100.821 288.35C100.536 289.776 101.46 291.163 102.886 291.449C104.311 291.734 105.699 290.81 105.984 289.384L128.907 174.981C129.192 173.555 128.268 172.168 126.842 171.882C125.417 171.597 124.029 172.521 123.744 173.947L100.821 288.35Z" stroke="#000022" stroke-miterlimit="10" stroke-linecap="round"/>
<path d="M111.021 66.6445C111.021 65.1139 109.78 63.873 108.249 63.873C106.718 63.873 105.478 65.1139 105.478 66.6445V107.107C105.478 108.638 106.718 109.879 108.249 109.879C109.78 109.879 111.021 108.638 111.021 107.107V66.6445Z" fill="#1A5FFE"/>
<path d="M109.912 67.4758C109.912 65.9452 108.671 64.7043 107.141 64.7043C105.61 64.7043 104.369 65.9452 104.369 67.4758V107.939C104.369 109.469 105.61 110.71 107.141 110.71C108.671 110.71 109.912 109.469 109.912 107.939V67.4758Z" stroke="#000022" stroke-miterlimit="10" stroke-linecap="round"/>
<path d="M112.819 13.0256H101.733C101.439 13.0256 101.157 13.1424 100.95 13.3503C100.742 13.5582 100.625 13.8402 100.625 14.1342V34.3656C100.625 34.6596 100.742 34.9416 100.95 35.1495C101.157 35.3574 101.439 35.4742 101.733 35.4742H106.445V65.4055H108.108V35.4742H112.819C113.113 35.4742 113.395 35.3574 113.603 35.1495C113.811 34.9416 113.928 34.6596 113.928 34.3656V14.1342C113.928 13.8402 113.811 13.5582 113.603 13.3503C113.395 13.1424 113.113 13.0256 112.819 13.0256ZM104.505 29.9313C104.505 30.2253 104.388 30.5073 104.18 30.7152C103.972 30.9231 103.69 31.0399 103.396 31.0399C103.102 31.0399 102.82 30.9231 102.612 30.7152C102.405 30.5073 102.288 30.2253 102.288 29.9313V18.0142C102.288 17.7202 102.405 17.4382 102.612 17.2303C102.82 17.0224 103.102 16.9056 103.396 16.9056C103.69 16.9056 103.972 17.0224 104.18 17.2303C104.388 17.4382 104.505 17.7202 104.505 18.0142V29.9313ZM108.385 29.9313C108.385 30.2253 108.268 30.5073 108.06 30.7152C107.852 30.9231 107.57 31.0399 107.276 31.0399C106.982 31.0399 106.7 30.9231 106.492 30.7152C106.285 30.5073 106.168 30.2253 106.168 29.9313V18.0142C106.168 17.7202 106.285 17.4382 106.492 17.2303C106.7 17.0224 106.982 16.9056 107.276 16.9056C107.57 16.9056 107.852 17.0224 108.06 17.2303C108.268 17.4382 108.385 17.7202 108.385 18.0142V29.9313ZM112.265 29.9313C112.265 30.2253 112.148 30.5073 111.94 30.7152C111.732 30.9231 111.45 31.0399 111.156 31.0399C110.862 31.0399 110.58 30.9231 110.372 30.7152C110.165 30.5073 110.048 30.2253 110.048 29.9313V18.0142C110.048 17.7202 110.165 17.4382 110.372 17.2303C110.58 17.0224 110.862 16.9056 111.156 16.9056C111.45 16.9056 111.732 17.0224 111.94 17.2303C112.148 17.4382 112.265 17.7202 112.265 18.0142V29.9313Z" fill="#000022"/>
<path d="M138.039 125.268C138.039 125.268 144.691 120.834 140.256 112.797C135.822 104.76 136.931 105.037 140.256 98.1085C143.582 91.1799 144.136 87.5771 139.702 83.4199" stroke="#000022" stroke-linecap="round" stroke-linejoin="round"/>
<path d="M121.275 129.002C121.275 129.002 116.009 124.013 119.889 121.796C123.769 119.579 125.709 115.699 122.106 112.927C118.503 110.156 122.383 107.384 124.323 106.276" stroke="#000022" stroke-linecap="round" stroke-linejoin="round"/>
<path d="M152.315 101.01C152.315 101.01 144.555 107.661 149.266 112.927C153.978 118.193 154.255 120.964 152.038 123.459" stroke="#000022" stroke-linecap="round" stroke-linejoin="round"/>
<path d="M45.4202 24.0642L23.2756 46.2087L29.7426 52.6757L51.8871 30.5312L45.4202 24.0642Z" stroke="#010024" stroke-miterlimit="10" stroke-linecap="round"/>
</svg>
