<svg width="315" height="300" viewBox="0 0 315 300" fill="none" xmlns="http://www.w3.org/2000/svg">
<path d="M255.649 63.8647L239.271 73.9533L239.256 73.9441L236.38 78.2249L226.223 93.3516L217.122 87.2433L229.817 68.3387L229.115 58.6395L232.58 57.9465L232.832 62.1475L239.001 47.0361L241.78 48.4099L238.042 60.4181L245.619 48.6061L249.252 51.2586L241.464 62.7516L251.23 52.476L254.705 54.5397L243.877 65.9928L254.83 59.5503L255.649 63.8647Z" fill="#C0512B"/>
<path d="M229.146 58.5535L232.488 58.437L232.728 61.9634L239.415 47.3794L241.445 48.8912L238.121 60.3259L245.938 48.7532L249.274 51.2002L241.356 62.8281L251.638 52.8438L253.914 54.932L243.88 65.9129L254.723 60.3014L255.64 63.8216L238.983 73.487L236.392 77.5838L227.892 71.0676L230.431 68.1208L229.146 58.5535Z" stroke="#000022" stroke-linecap="round" stroke-linejoin="round"/>
<path d="M239.458 80.5062L217.181 112.471C216.824 112.982 216.439 113.472 216.028 113.94L215.479 114.685C210.959 120.946 203.78 122.489 195.578 118.855L157.86 100.616L172.855 79.298L203.339 101.309L224.911 70.3716L239.458 80.5062Z" fill="#1A5FFE"/>
<path d="M225.537 72.2329L202.781 103.382L178.148 86.7464" stroke="#000022" stroke-miterlimit="10" stroke-linecap="round"/>
<path d="M237.33 79.3379L212.609 115.89C212.609 115.89 205.697 123.939 195.495 118.904C185.293 113.869 161.39 101.425 161.39 101.425" stroke="#000022" stroke-miterlimit="10" stroke-linecap="round"/>
<path d="M50.0568 173.919L29.2881 202.171C26.5126 205.947 22.3509 208.465 17.7185 209.173C13.0861 209.88 8.36251 208.718 4.58685 205.942L35.8206 163.454L50.0568 173.919Z" fill="#000022"/>
<path d="M123.348 175.179C123.35 177.714 122.453 180.167 120.815 182.1L89.8867 218.711C88.2867 220.605 86.0799 221.888 83.6415 222.339C81.203 222.791 78.6834 222.384 76.5109 221.188C75.9271 220.897 75.3717 220.552 74.852 220.158L36.5951 191.294C34.3224 189.579 32.824 187.031 32.4295 184.212C32.035 181.392 32.7768 178.532 34.4915 176.259C36.2063 173.986 38.7537 172.488 41.5732 172.093C44.3928 171.699 47.2536 172.44 49.5263 174.155L79.9944 197.154L104.409 168.255C105.828 166.573 107.73 165.367 109.857 164.801C111.984 164.235 114.233 164.337 116.3 165.093C118.368 165.849 120.152 167.222 121.413 169.026C122.674 170.83 123.349 172.978 123.348 175.179Z" fill="#C0512B" stroke="#000022" stroke-miterlimit="10"/>
<path d="M174.367 120.686C168.055 116.644 160.544 114.899 153.096 115.741C145.648 116.584 138.717 119.964 133.467 125.313L73.978 185.78L117.828 210.925L159.13 156.036L174.367 120.686Z" fill="#FCDBAA"/>
<path d="M124.39 135.337C123.728 135.99 75.9559 181.947 75.9559 181.947L120.113 208.932" stroke="#000022" stroke-miterlimit="10" stroke-linecap="round"/>
<path d="M234.063 280.917L261.147 258.646C264.767 255.67 269.42 254.253 274.084 254.708C278.748 255.163 283.04 257.452 286.017 261.071L245.278 294.57L234.056 280.923L234.063 280.917Z" fill="#000022"/>
<path d="M171.036 187.4L171.034 187.402C166.454 191.167 165.794 197.933 169.56 202.512L235.035 282.137C238.801 286.717 245.566 287.377 250.145 283.611L250.148 283.609C254.727 279.843 255.387 273.078 251.621 268.498L186.147 188.873C182.381 184.294 175.616 183.634 171.036 187.4Z" fill="#C0512B" stroke="#000022" stroke-miterlimit="10"/>
<path d="M125.598 125.347C120.791 131.097 118.108 138.327 118 145.822C117.892 153.317 120.366 160.621 125.007 166.507L165.971 218.901L205.222 190.383L158.744 144.957L125.598 125.347Z" fill="#FCDBAA"/>
<path d="M201.024 47.9007C201 48.9419 200.569 49.9324 199.824 50.6602C199.079 51.388 198.079 51.7954 197.037 51.7951H196.951L193.17 51.7154V52.4666C193.093 56.1616 191.686 59.7048 189.208 62.4466C186.73 65.1884 183.346 66.9449 179.678 67.3941L174.91 76.5259L164.68 71.1842L168.228 64.3951C166.29 62.9316 164.727 61.0286 163.668 58.8428C162.609 56.6569 162.085 54.2509 162.138 51.8227L162.325 42.9637C162.414 38.8919 164.117 35.0221 167.058 32.2047C169.999 29.3873 173.938 27.8527 178.01 27.9382H178.317C182.389 28.0267 186.259 29.7287 189.077 32.6699C191.894 35.6111 193.428 39.5509 193.342 43.623V43.7764L197.12 43.8561C198.173 43.8778 199.175 44.3154 199.906 45.0733C200.637 45.8311 201.039 46.8476 201.024 47.9007Z" fill="#C0512B"/>
<path d="M182.447 37.1441L182.444 37.144C179.534 37.0826 177.124 39.3922 177.063 42.3027L177.028 43.9521C176.967 46.8627 179.276 49.272 182.187 49.3335L182.19 49.3335C185.1 49.395 187.51 47.0854 187.571 44.1748L187.606 42.5254C187.667 39.6149 185.358 37.2056 182.447 37.1441Z" fill="#F8FAFC"/>
<path d="M187.795 43.4466C187.832 41.6891 186.882 40.2436 185.673 40.2181C184.464 40.1926 183.454 41.5966 183.417 43.3541C183.38 45.1116 184.33 46.5571 185.539 46.5826C186.748 46.6081 187.758 45.2041 187.795 43.4466Z" fill="#010024"/>
<path d="M172.665 25.8924H172.638V25.8562L172.665 25.8924Z" fill="#010024"/>
<path d="M190.055 20.809C189.787 20.8027 189.519 20.8119 189.252 20.8365C189.232 19.9014 188.867 19.0067 188.226 18.3254C187.586 17.644 186.715 17.2247 185.783 17.1483C184.851 17.072 183.923 17.3442 183.18 17.9122C182.437 18.4803 181.931 19.3037 181.76 20.2233C180.857 19.7883 179.865 19.573 178.863 19.5948C177.861 19.6167 176.878 19.8751 175.995 20.349C175.364 19.5372 174.495 18.9414 173.511 18.6438C172.526 18.3462 171.473 18.3615 170.497 18.6875C169.522 19.0135 168.671 19.6342 168.063 20.464C167.455 21.2938 167.12 22.2918 167.103 23.3204C167.103 23.4001 167.103 23.4767 167.103 23.5534C166.839 23.5258 166.569 23.5105 166.299 23.5043C164.691 23.4709 163.098 23.82 161.651 24.523C160.205 25.2261 158.946 26.2628 157.979 27.5479C157.011 28.833 156.363 30.3295 156.088 31.9142C155.812 33.4989 155.918 35.1264 156.395 36.6624C155.64 37.2992 155.021 38.0815 154.574 38.9627C154.128 39.8438 153.864 40.8058 153.797 41.7913C153.73 42.7767 153.863 43.7655 154.186 44.6988C154.51 45.632 155.018 46.4905 155.68 47.2232C155.323 48.144 155.171 49.1318 155.237 50.1173C155.302 51.1028 155.582 52.0621 156.057 52.9277C156.533 53.7934 157.192 54.5444 157.989 55.128C158.786 55.7117 159.701 56.1138 160.669 56.3061C161.638 56.4984 162.637 56.4762 163.596 56.2411C164.556 56.006 165.452 55.5638 166.222 54.9454C166.992 54.327 167.617 53.5474 168.054 52.6615C168.491 51.7756 168.728 50.8049 168.749 49.8174C168.76 49.3401 168.719 48.8631 168.627 48.3946C169.273 48.3272 169.889 48.0851 170.409 47.6943C170.928 47.3035 171.331 46.7788 171.575 46.1763C171.819 45.5738 171.894 44.9162 171.793 44.2742C171.692 43.6321 171.418 43.0297 171 42.5316C172.309 41.812 173.442 40.8117 174.318 39.6024C175.195 38.393 175.793 37.0047 176.069 35.537C176.869 35.389 177.622 35.054 178.268 34.5595C178.914 34.065 179.434 33.4249 179.785 32.6914C180.037 33.2881 180.438 33.8101 180.949 34.2073C181.461 34.6045 182.066 34.8635 182.706 34.9596C183.346 35.0557 184.001 34.9855 184.606 34.7558C185.212 34.5262 185.748 34.1447 186.164 33.6481C187.07 34.2252 188.097 34.5848 189.165 34.6988C190.233 34.8128 191.313 34.6781 192.32 34.3052C193.327 33.9323 194.235 33.3313 194.971 32.5493C195.708 31.7673 196.253 30.8255 196.565 29.7976C196.876 28.7698 196.946 27.6837 196.768 26.6244C196.59 25.5651 196.17 24.5613 195.539 23.6917C194.909 22.8221 194.086 22.1101 193.134 21.6116C192.183 21.1131 191.129 20.8415 190.055 20.8181V20.809ZM172.665 25.8931H172.638V25.8563L172.665 25.8931Z" fill="#010024"/>
<path d="M172.665 25.8924H172.638V25.8562L172.665 25.8924Z" fill="#010024"/>
<path d="M172.665 25.8924H172.638V25.8562L172.665 25.8924Z" fill="#010024"/>
<path d="M168.495 50.1762C171.462 50.1762 173.867 47.7709 173.867 44.8038C173.867 41.8367 171.462 39.4314 168.495 39.4314C165.528 39.4314 163.122 41.8367 163.122 44.8038C163.122 47.7709 165.528 50.1762 168.495 50.1762Z" fill="#C0512B"/>
<path d="M188.549 54.5028C188.517 56.0064 187.889 57.4356 186.804 58.4764C185.718 59.5172 184.264 60.0843 182.76 60.053V60.053C181.258 60.0216 179.83 59.3957 178.79 58.3125C177.749 57.2294 177.181 55.7776 177.21 54.2759" stroke="#010024" stroke-miterlimit="10" stroke-linecap="round"/>
<path d="M177.44 162.208L110.981 130.922L162.822 66.0818L181.395 76.986L177.44 162.208Z" fill="#1A5FFE"/>
<path d="M119.745 135.034C119.745 135.034 112.167 150.317 137.272 181.502C162.377 212.688 166.71 218.441 166.71 218.441" stroke="#000022" stroke-miterlimit="10" stroke-linecap="round"/>
<path d="M163.319 214.264C163.733 213.605 197.847 186.09 197.847 186.09" stroke="#000022" stroke-miterlimit="10" stroke-linecap="round"/>
<path d="M176.09 73.8521L179.709 67.1366C179.709 67.1366 191.754 66.9833 193.275 51.6358H197.448C198.487 51.6356 199.485 51.2318 200.231 50.5098C200.978 49.7878 201.415 48.804 201.45 47.7659V47.7659C201.468 47.229 201.378 46.694 201.185 46.1926C200.992 45.6913 200.7 45.2338 200.327 44.8476C199.953 44.4614 199.506 44.1542 199.011 43.9444C198.517 43.7345 197.985 43.6263 197.448 43.6262H193.431C193.431 43.6262 193.704 35.4726 187.997 32.4797" stroke="#000022" stroke-miterlimit="10" stroke-linecap="round"/>
<path d="M166.787 67.523L168.467 64.5516C168.467 64.5516 163.843 61.4667 162.396 53.6995" stroke="#010024" stroke-miterlimit="10" stroke-linecap="round"/>
<path d="M83.5024 174.603L124.406 199.426" stroke="#000022" stroke-miterlimit="10" stroke-linecap="round"/>
<path d="M200.662 9.42305L189.009 19.1375L153.092 50.2895C149.605 45.5546 147.9 39.7413 148.277 33.873C148.654 28.0047 151.089 22.4574 155.153 18.2077C159.217 13.9579 164.651 11.2781 170.496 10.6399C176.342 10.0018 182.226 11.4461 187.111 14.7188L197.718 5.88745L200.662 9.42305Z" fill="#1A5FFE"/>
<path d="M153.745 49.2438L200.515 9.46294L197.598 5.90894" stroke="#000022" stroke-miterlimit="10" stroke-linecap="round"/>
<path d="M160.685 137.766C160.685 137.766 170.877 120.775 170.877 121.388C170.877 122.001 175.998 128.002 175.998 128.002L170.316 141.262L160.685 137.766Z" fill="#FBD206"/>
<path d="M158.728 136.291L170.405 119.701L174.698 126.448L168.259 140.247L158.728 136.291Z" stroke="#000022" stroke-miterlimit="10" stroke-linecap="round"/>
<path d="M306.095 46.5701H208.276V142.856H306.095V46.5701Z" fill="#FBD206"/>
<path d="M306.095 44.7332H268.378V141.019H306.095V44.7332Z" fill="#1A5FFE"/>
<path d="M305.022 43.6567H204.443V140.863H305.022V43.6567Z" stroke="#000022" stroke-miterlimit="10" stroke-linecap="round"/>
<path d="M304.408 43.9666H266.691V140.253H304.408V43.9666Z" stroke="#000022" stroke-miterlimit="10" stroke-linecap="round"/>
<path d="M289.846 49.0232H271.754V53.0096H289.846V49.0232Z" fill="white"/>
<path d="M288.006 56.3826H272.674V59.449H288.006V56.3826Z" fill="white"/>
<path d="M262.245 112.192H245.993V135.803H262.245V112.192Z" fill="white"/>
<path d="M242.874 114.096L255.431 116.049L253.331 119.904L234.267 117.34L234.258 117.319L229.327 118.812L211.888 124.09L208.714 113.599L230.507 107.003L236.107 99.0521L239.225 100.711L236.757 104.124L251.108 96.3352L252.386 99.1594L241.89 106.086L255.232 101.744L256.367 106.099L243.061 110.058L257.127 108.291L258.507 112.091L242.874 114.096Z" fill="#C0512B"/>
<path d="M231.01 124.718L190.987 134.374C188.613 134.947 186.15 135.046 183.738 134.667C181.326 134.288 179.012 133.437 176.929 132.163C174.846 130.889 173.034 129.218 171.597 127.244C170.159 125.27 169.125 123.032 168.553 120.658L167.94 118.104L170.393 117.512L156.027 83.1004L181.386 77.0872L189.42 112.934L226.033 104.099L231.01 124.718Z" fill="#1A5FFE"/>
<path d="M225.653 106.957L188.868 115.277L182.364 77.5257L164.702 66.7012L117.883 133.117L177.464 162.153L178.958 134.653" stroke="#000022" stroke-miterlimit="10" stroke-linecap="round"/>
<path d="M165.416 96.3721C165.416 96.3721 167.256 132.709 186.575 132.087C205.893 131.464 230.489 122.118 230.489 122.118" stroke="#000022" stroke-miterlimit="10" stroke-linecap="round"/>
<path d="M236.18 99.0061L238.845 101.03L236.794 103.912L251.206 96.8596L251.819 99.3128L242.006 106.059L255.385 102.051L256.419 106.059L242.926 110.045L257.207 108.828L257.645 111.885L242.926 114.032L254.873 116.552L253.352 119.858L234.34 116.791L229.741 118.325L227.288 107.899L231.121 107.224L236.18 99.0061Z" stroke="#000022" stroke-linecap="round" stroke-linejoin="round"/>
<path d="M170.923 143.694L99.3433 115.216L79.6549 164.703L151.235 193.181L170.923 143.694Z" fill="#FBD206"/>
<path d="M104.888 117.426L129.95 155.002L174.204 144.769" stroke="#000022" stroke-miterlimit="10" stroke-linecap="round"/>
<path d="M87.2649 159.59L104.707 115.375L174.922 143.074L159.734 181.573" stroke="#000022" stroke-miterlimit="10" stroke-linecap="round"/>
<path d="M118.429 120.158L164.735 66.8054L170.013 70.4361L133.142 126.543L118.429 120.158Z" fill="#FBD206"/>
<path d="M116.908 119.852C117.521 119.545 163.518 65.8823 163.518 65.8823L168.424 70.1753L129.481 125.065L116.908 119.852Z" stroke="#000022" stroke-miterlimit="10" stroke-linecap="round"/>
<path d="M163.211 49.94C163.211 51.4026 162.874 52.8455 162.225 54.1564C161.577 55.4673 160.634 56.6108 159.471 57.498C158.309 58.3852 156.957 58.9921 155.521 59.2714C154.085 59.5508 152.605 59.4951 151.194 59.1087C151.808 61.6369 151.661 64.2903 150.77 66.735C149.88 69.1796 148.286 71.3062 146.19 72.847C144.093 74.3878 141.588 75.2739 138.989 75.3938C136.39 75.5138 133.813 74.8621 131.584 73.5209C130.772 77.6902 128.587 81.4674 125.377 84.25C122.168 87.0325 118.119 88.6601 113.876 88.8731C109.634 89.0861 105.443 87.8723 101.971 85.4252C98.4985 82.9782 95.946 79.4389 94.7201 75.372C93.4942 71.305 93.6656 66.9446 95.2069 62.9864C96.7482 59.0282 99.5707 55.7002 103.224 53.5332C106.877 51.3663 111.151 50.4852 115.364 51.0305C119.576 51.5759 123.485 53.5162 126.466 56.5421C127.217 54.9648 128.273 53.5524 129.574 52.3868C130.875 51.2212 132.394 50.3257 134.044 49.7522C135.694 49.1788 137.441 48.9389 139.185 49.0464C140.928 49.1539 142.632 49.6067 144.199 50.3785C144.199 50.2313 144.199 50.0872 144.199 49.94C144.199 47.4189 145.201 45.001 146.984 43.2183C148.766 41.4356 151.184 40.4341 153.705 40.4341C156.226 40.4341 158.644 41.4356 160.427 43.2183C162.21 45.001 163.211 47.4189 163.211 49.94Z" fill="#010024"/>
</svg>
