<svg width="201" height="300" viewBox="0 0 201 300" fill="none" xmlns="http://www.w3.org/2000/svg">
<path d="M118.554 44.7293C118.525 46.0219 117.99 47.2515 117.065 48.155C116.14 49.0585 114.899 49.5642 113.606 49.5638H113.499L108.805 49.4649V50.3975C108.709 54.9845 106.963 59.3832 103.887 62.7868C100.81 66.1905 96.6097 68.3711 92.0557 68.9287L86.1362 80.2652L73.4407 73.6339L77.849 65.1943C75.4427 63.3775 73.5024 61.0151 72.188 58.3016C70.8736 55.588 70.2226 52.6011 70.2888 49.5867L70.521 38.589C70.6309 33.5338 72.7437 28.7291 76.395 25.2313C80.0463 21.7335 84.9372 19.8288 89.9925 19.9359H90.3732C95.4283 20.0458 100.233 22.1587 103.731 25.81C107.229 29.4613 109.133 34.3522 109.026 39.4074V39.5978L113.716 39.6967C115.024 39.7257 116.267 40.2714 117.174 41.2145C118.081 42.1575 118.577 43.4212 118.554 44.7293Z" fill="#C0512B"/>
<path d="M165.625 145.479L134.41 145.475L129.842 91.0383L170.574 91.0421L165.625 145.479Z" fill="#1A5FFE"/>
<path d="M165.625 147.763L134.41 147.759L129.842 93.3223L170.574 93.3261L165.625 147.763Z" stroke="#000022" stroke-miterlimit="10" stroke-linecap="round"/>
<path d="M172.477 107.792H126.796V135.2H172.477V107.792Z" fill="#FBD206"/>
<path d="M173.429 104.175H127.748V131.584H173.429V104.175Z" stroke="#000022" stroke-miterlimit="10" stroke-linecap="round"/>
<path d="M73.4402 221.37L96.8123 258.071C99.9371 262.978 100.985 268.925 99.7246 274.604C98.4645 280.284 94.9999 285.23 90.093 288.354L54.9224 233.126L73.4238 221.344L73.4402 221.37Z" fill="#000022"/>
<path d="M153.529 208.689C160.888 204.002 163.055 194.237 158.368 186.878C153.682 179.518 143.917 177.352 136.557 182.038L73.944 221.912C66.5846 226.598 64.4179 236.364 69.1045 243.723C73.7912 251.083 83.5565 253.249 90.9159 248.563L153.529 208.689Z" fill="#C0512B" stroke="#000022" stroke-miterlimit="10"/>
<path d="M129.301 268.943H172.831C178.648 268.943 184.228 271.254 188.341 275.367C192.455 279.481 194.766 285.06 194.766 290.877H129.29V268.943H129.301Z" fill="#000022"/>
<path d="M161.624 194.585V268.817C161.624 273.007 159.96 277.025 156.997 279.988C154.034 282.951 150.016 284.615 145.826 284.615C141.636 284.615 137.618 282.951 134.655 279.988C131.693 277.025 130.028 273.007 130.028 268.817V208.476H44.9511C41.0641 208.476 37.3363 206.932 34.5878 204.184C31.8393 201.435 30.2952 197.707 30.2952 193.82C30.2952 189.933 31.8393 186.206 34.5878 183.457C37.3363 180.708 41.0641 179.164 44.9511 179.164C44.9511 179.164 144.642 178.784 145.83 178.784C150.019 178.786 154.036 180.451 156.999 183.413C159.961 186.375 161.626 190.392 161.628 194.582L161.624 194.585Z" fill="#C0512B" stroke="#000022" stroke-miterlimit="10"/>
<path d="M170.193 257.778C170.193 257.778 126.796 264.249 125.654 264.249C124.893 264.249 124.976 238.196 125.11 219.307L44.4485 211.084C37.3487 210.79 30.6341 207.776 25.696 202.666C20.7579 197.557 17.9747 190.743 17.9231 183.637L19.4458 151.562L91.0126 171.357L164.102 175.925L163.756 176.359L170.193 257.778Z" fill="#FCDBAA"/>
<path d="M72.3557 217.803L99.7643 251.683L131.36 229.604L129.838 206.763L88.344 203.718L72.3557 217.803Z" fill="#FCDBAA"/>
<path d="M95.4949 31.3704L95.4911 31.3704C91.8778 31.294 88.8869 34.1613 88.8105 37.7745L88.7673 39.8221C88.691 43.4353 91.5582 46.4263 95.1715 46.5026L95.1753 46.5027C98.7885 46.579 101.779 43.7118 101.856 40.0985L101.899 38.051C101.975 34.4377 99.1081 31.4468 95.4949 31.3704Z" fill="#F8FAFC"/>
<path d="M101.364 41.1032C101.411 38.9214 100.231 37.127 98.7305 37.0953C97.2297 37.0636 95.9757 38.8066 95.9296 40.9884C95.8835 43.1703 97.0628 44.9647 98.5636 44.9964C100.064 45.0281 101.318 43.285 101.364 41.1032Z" fill="#010024"/>
<path d="M83.3489 17.4076L83.3115 17.4263C83.3115 17.4263 83.3115 17.3927 83.3115 17.3777L83.3489 17.4076Z" fill="#010024"/>
<path d="M83.3489 17.4076L83.3115 17.4263C83.3115 17.4263 83.3115 17.3927 83.3115 17.3777L83.3489 17.4076Z" fill="#010024"/>
<path d="M83.3489 17.4076L83.3115 17.4263C83.3115 17.4263 83.3115 17.3927 83.3115 17.3777L83.3489 17.4076Z" fill="#010024"/>
<path d="M103.065 52.9139C103.026 54.7801 102.247 56.5544 100.9 57.8466C99.5529 59.1387 97.7477 59.8428 95.8815 59.8041V59.8041C94.0149 59.7641 92.2406 58.9846 90.9485 57.6369C89.6565 56.2892 88.9525 54.4835 88.9913 52.6169" stroke="#010024" stroke-miterlimit="10" stroke-linecap="round"/>
<path d="M102.01 183.341L12.2131 158.414L67.4871 67.6802L92.2043 77.8861L102.01 183.341Z" fill="#1A5FFE"/>
<path d="M101.272 183.272L15.8293 156.32L69.1428 68.1179L91.5836 77.9051L91.8006 80.2919L97.2518 128.276" stroke="#000022" stroke-miterlimit="10" stroke-linecap="round"/>
<path d="M88.1614 76.0017L92.0899 68.609C92.0899 68.609 107.039 68.4187 108.927 49.3659H114.108C115.398 49.3657 116.637 48.8647 117.565 47.9684C118.492 47.0722 119.035 45.8508 119.08 44.5618V44.5618C119.102 43.895 118.99 43.2305 118.751 42.6078C118.511 41.9852 118.148 41.4171 117.684 40.9376C117.22 40.458 116.665 40.0768 116.05 39.8165C115.436 39.5563 114.775 39.4223 114.108 39.4227H109.129C109.129 39.4227 109.468 29.2968 102.38 25.5852" stroke="#000022" stroke-miterlimit="10" stroke-linecap="round"/>
<path d="M75.5991 70.2915L78.1382 65.3998C78.1382 65.3998 72.3976 61.5702 70.6008 51.9277" stroke="#010024" stroke-miterlimit="10" stroke-linecap="round"/>
<path d="M20.0168 162.411L20.4965 171.083C20.4965 181.656 24.6963 191.796 32.1722 199.272C39.6481 206.749 49.7877 210.95 60.3607 210.951H128.319C128.319 210.951 128.699 260.058 128.319 260.438C127.938 260.819 164.864 252.825 164.864 252.825" stroke="#000022" stroke-miterlimit="10" stroke-linecap="round"/>
<path d="M49.3249 178.784C49.3249 178.784 51.6089 183.352 45.1375 188.301" stroke="#000022" stroke-miterlimit="10" stroke-linecap="round"/>
<path d="M130.805 247.233L165.431 241.599" stroke="#000022" stroke-miterlimit="10" stroke-linecap="round"/>
<path d="M126.221 212.283L89.6765 234.362" stroke="#000022" stroke-miterlimit="10" stroke-linecap="round"/>
<path d="M73.8176 218.328L99.5741 251.493L108.01 245.604L98.8127 230.936" stroke="#000022" stroke-miterlimit="10" stroke-linecap="round"/>
<path d="M123.187 122.223L122.921 122.63L122.833 122.432L123.187 122.223Z" fill="#C0512B"/>
<path d="M123.187 122.223L122.921 122.63L122.833 122.432L123.187 122.223Z" fill="#C0512B"/>
<path d="M158.011 126.593L156.108 121.953L138.745 124.835L155.057 119.265L153.436 113.936L137.101 119.981L149.781 110.871L148.053 107.445L131.486 117.305L134.295 113.079L130.344 111.176L124.303 120.518L96.342 130.217L100.811 143.069L122.175 135.638L127.911 133.64L128.208 134.298L151.981 136.544L154.399 131.656L138.726 129.852L158.011 126.593ZM123.187 122.223L122.921 122.63L122.833 122.432L123.187 122.223Z" fill="#C0512B"/>
<path d="M130.31 110.319L133.713 112.695L131.318 116.376L148.837 106.893L149.724 109.904L137.893 118.77L154.285 113.121L155.773 118.039L139.236 123.67L156.888 121.435L157.589 125.204L139.442 128.615L154.387 131.131L152.67 135.311L128.932 132.475L123.305 134.61L119.731 121.801L124.447 120.773L130.31 110.319Z" stroke="#000022" stroke-linecap="round" stroke-linejoin="round"/>
<path d="M176.284 88.7581H125.654V96.7522H176.284V88.7581Z" fill="#FBD206"/>
<path d="M169.051 80.3833H132.887V90.2808H169.051V80.3833Z" fill="#FBD206"/>
<path d="M176.474 88.9485H125.844V98.846H176.474V88.9485Z" stroke="#000022" stroke-miterlimit="10" stroke-linecap="round"/>
<path d="M170.954 79.4888H130.983V86.851H170.954V79.4888Z" stroke="#000022" stroke-miterlimit="10" stroke-linecap="round"/>
<path d="M153.295 64.7146C153.295 64.7146 161.03 59.5603 155.876 50.2147C150.722 40.8692 152.008 41.1889 155.876 33.1338C159.744 25.0788 160.387 20.8875 155.233 16.053" stroke="#000022" stroke-linecap="round" stroke-linejoin="round"/>
<path d="M145.068 70.676C145.068 70.676 138.943 64.8746 143.454 62.3012C147.965 59.7278 150.223 55.213 146.035 51.9887C141.848 48.7644 146.355 45.5439 148.612 44.2534" stroke="#000022" stroke-linecap="round" stroke-linejoin="round"/>
<path d="M104.938 11.0929C103.689 11.0652 102.449 11.3096 101.304 11.8092C100.158 12.3088 99.1357 13.0516 98.3064 13.986C97.8384 13.034 97.1833 12.186 96.3804 11.4927C95.5775 10.7994 94.6431 10.2749 93.633 9.95049C92.623 9.62612 91.5579 9.50853 90.5015 9.60475C89.445 9.70096 88.4187 10.009 87.4838 10.5105C86.6974 9.51015 85.6209 8.7774 84.4019 8.4126C83.1828 8.04779 81.8808 8.06877 80.6742 8.47266C79.4675 8.87655 78.4152 9.64359 77.6614 10.6687C76.9076 11.6939 76.4891 12.927 76.4633 14.1992C76.4633 14.2944 76.4633 14.3896 76.4633 14.4847C76.1359 14.4505 75.8009 14.4314 75.466 14.4238C73.4695 14.3829 71.4918 14.8169 69.696 15.6901C67.9001 16.5633 66.3374 17.8508 65.1366 19.4463C63.9359 21.0419 63.1314 22.8999 62.7895 24.8673C62.4476 26.8348 62.5781 28.8553 63.1702 30.7624C62.0481 31.7104 61.1712 32.9149 60.6137 34.274C60.0562 35.633 59.8346 37.1064 59.9678 38.5693C60.1009 40.0321 60.5848 41.4413 61.3784 42.6774C62.1721 43.9135 63.252 44.9399 64.5268 45.6698C65.8015 46.3997 67.2335 46.8114 68.7012 46.8701C70.169 46.9288 71.6292 46.6328 72.9582 46.0071C74.2872 45.3813 75.4457 44.4444 76.3355 43.2756C77.2253 42.1069 77.8202 40.7409 78.0698 39.2933C80.4467 38.7371 82.6112 37.5029 84.3005 35.7406C85.9898 33.9784 87.1314 31.7637 87.5866 29.3653C88.5781 29.1801 89.512 28.7642 90.3129 28.1512C91.1137 27.5381 91.759 26.7452 92.1966 25.8364C92.5099 26.5751 93.0074 27.2211 93.6415 27.7128C94.2756 28.2044 95.0251 28.5254 95.8185 28.6449C96.6119 28.7644 97.4228 28.6785 98.1735 28.3954C98.9243 28.1124 99.59 27.6415 100.107 27.028C101.232 27.7458 102.508 28.1934 103.835 28.3358C105.162 28.4781 106.504 28.3113 107.756 27.8483C109.008 27.3854 110.135 26.639 111.05 25.6674C111.965 24.6959 112.643 23.5258 113.03 22.2486C113.418 20.9714 113.504 19.6219 113.282 18.3058C113.061 16.9897 112.538 15.7427 111.754 14.6625C110.97 13.5824 109.947 12.6983 108.764 12.0797C107.582 11.4611 106.272 11.1246 104.938 11.0967V11.0929ZM83.3497 17.4083L83.3117 17.4273C83.3117 17.4273 83.3117 17.3931 83.3117 17.3779L83.3497 17.4083Z" fill="#010024"/>
<path d="M51.1484 160.808L48.7578 144.333L118.421 119.589L124.512 138.623L81.2865 162.026C79.2282 163.927 76.8157 165.403 74.1867 166.37C71.5578 167.337 68.7639 167.777 65.965 167.663C63.166 167.55 60.4168 166.887 57.8745 165.71C55.3322 164.534 53.0466 162.868 51.1484 160.808Z" fill="#1A5FFE"/>
<path d="M63.0483 86.2419L50.1282 131.466C48.457 137.325 48.4608 144.474 49.8275 150.347C52.2638 160.801 65.3133 169.587 75.8009 164.996C79.9883 163.172 118.398 142.917 123.56 138.432L118.231 120.16L71.2404 136.529L91.203 80.5698" stroke="#000022" stroke-miterlimit="10" stroke-linecap="round"/>
<path d="M84.5413 78.476C84.5389 80.5304 84.0616 82.5565 83.1464 84.3959C82.2313 86.2352 80.9032 87.838 79.2659 89.0791C77.6287 90.3201 75.7266 91.1656 73.7084 91.5497C71.6902 91.9338 69.6104 91.8459 67.6318 91.293C65.6532 90.7401 63.8292 89.7371 62.3024 88.3624C60.7757 86.9877 59.5875 85.2785 58.8308 83.3685C58.0741 81.4585 57.7693 79.3994 57.9403 77.3521C58.1113 75.3048 58.7534 73.3247 59.8164 71.5667C56.9673 69.509 55.0467 66.4089 54.4727 62.9416C53.8987 59.4742 54.718 55.9206 56.752 53.0545C55.2617 51.6665 54.3269 49.7841 54.1216 47.758C53.9164 45.7318 54.4547 43.7002 55.6364 42.0415C56.8181 40.3829 58.5625 39.2104 60.5445 38.7426C62.5266 38.2748 64.6111 38.5435 66.4097 39.4987C67.2139 38.6824 68.1767 38.0392 69.2387 37.6089C70.3008 37.1786 71.4396 36.9703 72.5852 36.9966C73.7309 37.023 74.859 37.2835 75.9001 37.7622C76.9412 38.2409 77.8734 38.9276 78.6392 39.78C79.405 40.6325 79.9882 41.6326 80.353 42.7189C80.7178 43.8052 80.8563 44.9547 80.7602 46.0966C80.6641 47.2384 80.3353 48.3485 79.794 49.3586C79.2528 50.3686 78.5105 51.2572 77.613 51.9696C79.4858 54.0963 80.6317 56.7648 80.8843 59.5873C81.137 62.4098 80.4831 65.2393 79.0177 67.6648C80.7307 68.8987 82.1252 70.5229 83.0857 72.403C84.0463 74.283 84.5452 76.3648 84.5413 78.476Z" fill="#010024"/>
<path d="M78.5608 46.7278C82.2442 46.7278 85.2302 43.7418 85.2302 40.0583C85.2302 36.3749 82.2442 33.3889 78.5608 33.3889C74.8774 33.3889 71.8914 36.3749 71.8914 40.0583C71.8914 43.7418 74.8774 46.7278 78.5608 46.7278Z" fill="#C0512B"/>
<path d="M95.2 286.682C94.6252 286.858 94.0212 286.919 93.4227 286.861C92.8243 286.803 92.2432 286.628 91.7127 286.345C91.1822 286.062 90.7128 285.677 90.3313 285.213C89.9499 284.748 89.664 284.212 89.4899 283.637L71.1604 224.084H57.1326V283.713C57.1326 284.925 56.6513 286.086 55.7946 286.943C54.9379 287.8 53.776 288.281 52.5645 288.281C51.3529 288.281 50.191 287.8 49.3343 286.943C48.4777 286.086 47.9964 284.925 47.9964 283.713V224.08H36.9835L18.6616 283.656C18.3052 284.814 17.5034 285.783 16.4325 286.35C15.3617 286.917 14.1095 287.035 12.9515 286.678C11.7934 286.322 10.8244 285.52 10.2576 284.449C9.69075 283.379 9.57252 282.126 9.92892 280.968L27.4399 224.08H25.9172C24.0495 224.08 22.2582 223.338 20.9375 222.018C19.6167 220.697 18.8748 218.906 18.8748 217.038C18.8748 215.17 19.6167 213.379 20.9375 212.058C22.2582 210.737 24.0495 209.995 25.9172 209.995H87.5865C89.4543 209.995 91.2456 210.737 92.5663 212.058C93.887 213.379 94.629 215.17 94.629 217.038C94.629 218.906 93.887 220.697 92.5663 222.018C91.2456 223.338 89.4543 224.08 87.5865 224.08H80.7344L98.2074 280.972C98.5645 282.128 98.4484 283.379 97.8846 284.449C97.3208 285.52 96.3553 286.323 95.2 286.682Z" fill="#FBD206"/>
<path d="M49.8999 226.063V283.713C49.8999 284.924 50.3812 286.086 51.2379 286.943C52.0946 287.8 53.2565 288.281 54.468 288.281C55.6795 288.281 56.8414 287.8 57.6981 286.943C58.5548 286.086 59.0361 284.924 59.0361 283.713V226.471" stroke="#000022" stroke-miterlimit="10" stroke-linecap="round"/>
<path d="M33.9343 226.566L16.3776 283.667C16.2011 284.241 15.9135 284.774 15.531 285.236C15.1486 285.698 14.6788 286.081 14.1486 286.361C13.6183 286.642 13.038 286.815 12.4407 286.872C11.8434 286.928 11.2408 286.866 10.6674 286.69V286.69C10.0937 286.514 9.56022 286.226 9.09756 285.844C8.6349 285.462 8.25211 284.992 7.97106 284.462C7.69001 283.932 7.51621 283.351 7.45958 282.754C7.40296 282.156 7.46463 281.553 7.64107 280.98L24.4555 226.3" stroke="#000022" stroke-miterlimit="10" stroke-linecap="round"/>
<path d="M24.8172 225.9C23.1596 225.639 21.6497 224.794 20.5595 223.518C19.4693 222.242 18.8706 220.619 18.8711 218.941V218.941C18.8711 218.016 19.0534 217.1 19.4075 216.245C19.7617 215.391 20.2808 214.614 20.9351 213.96C21.5895 213.306 22.3663 212.787 23.2212 212.434C24.076 212.08 24.9922 211.898 25.9174 211.899H87.5867C89.4544 211.899 91.2457 212.641 92.5665 213.961C93.8872 215.282 94.6291 217.073 94.6291 218.941V218.941C94.6291 220.809 93.8872 222.6 92.5665 223.921C91.2457 225.242 89.4544 225.984 87.5867 225.984H25.9174C25.5503 225.985 25.1837 225.957 24.821 225.9" stroke="#000022" stroke-miterlimit="10" stroke-linecap="round"/>
<path d="M69.0249 225.805L86.81 283.667C86.9841 284.243 87.27 284.778 87.6515 285.243C88.0329 285.708 88.5023 286.093 89.0328 286.375C89.5633 286.658 90.1444 286.834 90.7429 286.892C91.3413 286.95 91.9453 286.889 92.5201 286.713C93.0936 286.536 93.6266 286.249 94.0889 285.866C94.5511 285.484 94.9335 285.014 95.2141 284.484C95.4948 283.953 95.6683 283.373 95.7247 282.776C95.781 282.178 95.7192 281.576 95.5427 281.003L79.0176 226.368" stroke="#000022" stroke-miterlimit="10" stroke-linecap="round"/>
</svg>
